<?xml version="1.0" standalone="no"?>
<!DOCTYPE svg PUBLIC "-//W3C//DTD SVG 20010904//EN"
 "http://www.w3.org/TR/2001/REC-SVG-20010904/DTD/svg10.dtd">
<svg version="1.0" xmlns="http://www.w3.org/2000/svg"
 width="310.000000pt" height="310.000000pt" viewBox="0 0 310.000000 310.000000"
 preserveAspectRatio="xMidYMid meet">
<metadata>
Created by potrace 1.15, written by Peter Selinger 2001-2017
</metadata>
<g transform="translate(0.000000,310.000000) scale(0.100000,-0.100000)"
fill="#000000" stroke="none">
<path d="M0 2393 c0 -388 2 -704 5 -701 3 2 10 40 16 84 33 242 141 502 294
705 85 113 251 271 365 348 172 115 385 204 568 237 48 8 105 19 127 23 23 5
-269 9 -667 10 l-708 1 0 -707z"/>
<path d="M1725 3089 c22 -4 79 -15 127 -23 183 -33 396 -122 568 -237 114 -77
280 -235 365 -348 153 -203 261 -463 294 -705 6 -44 13 -82 16 -84 3 -3 5 313
5 701 l0 707 -707 -1 c-399 -1 -691 -5 -668 -10z"/>
<path d="M1105 2468 c-20 -103 -32 -172 -105 -588 -44 -250 -87 -491 -95 -535
-13 -70 -25 -140 -65 -370 -5 -27 -20 -115 -34 -195 -14 -80 -26 -153 -26
-162 0 -16 14 -18 159 -18 88 0 162 4 165 9 6 9 5 4 121 661 13 74 31 176 40
225 14 79 50 284 75 430 5 28 18 100 29 160 12 61 21 113 21 118 0 4 83 7 184
7 220 0 292 -16 354 -78 82 -82 84 -249 6 -341 -93 -108 -276 -157 -497 -132
-54 6 -103 9 -108 6 -12 -8 23 -75 62 -120 38 -43 95 -78 175 -106 85 -30 252
-30 348 0 214 67 359 216 401 416 65 307 -73 532 -376 617 -67 19 -109 21
-450 25 l-377 5 -7 -34z"/>
<path d="M0 707 l0 -707 707 0 c388 0 704 2 701 5 -2 3 -40 10 -84 16 -475 65
-905 368 -1139 803 -80 147 -142 337 -164 500 -6 44 -13 82 -16 84 -3 3 -5
-313 -5 -701z"/>
<path d="M3090 1406 c0 -3 -5 -40 -11 -83 -74 -536 -456 -1016 -967 -1214
-101 -39 -238 -75 -336 -88 -44 -6 -82 -13 -84 -16 -3 -3 313 -5 701 -5 l707
0 0 705 c0 388 -2 705 -5 705 -3 0 -5 -2 -5 -4z"/>
</g>
</svg>
